# xmcd
#
# Track frame offsets:
#	150
#	23027
#	44567
#	68280
#	104135
#	119472
#	145692
#	173595
#	203777
#	237245
#	269965
#	295892
#
# Disc length: 4451 seconds
#
# Revision: 3
# Processed by: cddbd v1.5.2PL0 Copyright (c) Steve Scherf et al.
# Submitted via: EZCDAudioConverter 2.1.7.1
#
DISCID=b411610c
DTITLE=Wayne Shorter - Footprints 2/2
DYEAR=2004
DGENRE=
TTITLE0=Weather Report - Elegant People
TTITLE1=Weather Report - Palladium
TTITLE2=Wayne Shorter with Milton Nascimento - Ponta De Areia
TTITLE3=Steely Dan - Aja
TTITLE4=Joni Mitchell - The Dry Cleaner From Des Moines
TTITLE5=Wayne Shorter - The Three Marias
TTITLE6=Wayne Shorter - Mahogany Bird
TTITLE7=Wayne Shorter - Joy Ryder
TTITLE8=Wayne Shorter - Children Of The Night
TTITLE9=J.J. Johnson - In Walked Wayne
TTITLE10=Wayne Shorter and Herbie Hancock - Aung San Suu Kyi
TTITLE11=Wayne Shorter - Masquelero [Live]
EXTD=
EXTT0=
EXTT1=
EXTT2=
EXTT3=
EXTT4=
EXTT5=
EXTT6=
EXTT7=
EXTT8=
EXTT9=
EXTT10=
EXTT11=
PLAYORDER=
